<svg width="93" height="93" xmlns="http://www.w3.org/2000/svg" clip-rule="evenodd">

 <g>
  <title>background</title>
  <rect fill="none" id="canvas_background" height="95" width="95" y="-1" x="-1"/>
 </g>
 <g>
  <title>Layer 1</title>
  <g stroke="null" id="svg_2" fill-rule="nonzero">
   <path stroke="null" id="svg_3" fill="#67bee7" d="m75.268,36.716c0,-0.594 -0.02,-1.183 -0.055,-1.768a35.967,35.967 0 0 0 -2.118,-2.63a30.911,30.911 0 0 1 2.048,7.087c0.081,-0.886 0.125,-1.782 0.125,-2.689z"/>
   <path stroke="null" id="svg_4" fill-opacity="0.8" fill="#868689" d="m11.163,62.116l0,-0.002l-0.021,-0.049a0.931,0.931 0 0 0 0.021,0.051z"/>
   <path stroke="null" id="svg_5" fill="#72797f" d="m17.44,55.993c0,0.596 0.02,1.184 0.056,1.77a35.95,35.95 0 0 0 2.118,2.629a30.99,30.99 0 0 1 -2.048,-7.086c-0.082,0.884 -0.126,1.78 -0.126,2.687z"/>
   <path stroke="null" id="svg_6" fill-opacity="0.4" fill="#67bee7" d="m8.746,20.996l0.071,-0.103l-0.071,0.103zm1.611,11.539l0.056,-0.147a5.01,5.01 0 0 0 -0.056,0.147z"/>
   <path stroke="null" id="svg_7" fill-opacity="0.8" fill="#868689" d="m75.268,36.716c0,0.907 -0.044,1.803 -0.125,2.689a30.911,30.911 0 0 0 -2.048,-7.087c-5.051,-5.701 -11.896,-9.776 -19.651,-11.338c6.638,3.309 11.513,8.801 13.808,15.031a28.812,28.812 0 0 1 7.958,21.755a35.577,35.577 0 0 0 5.544,-11.412a35.597,35.597 0 0 0 -5.541,-11.407c0.035,0.586 0.055,1.175 0.055,1.769z"/>
   <path stroke="null" id="svg_8" fill="#009ee0" d="m75.268,36.716c0,0.907 -0.044,1.803 -0.125,2.689a30.911,30.911 0 0 0 -2.048,-7.087c-5.051,-5.701 -11.896,-9.776 -19.651,-11.338c6.638,3.309 11.513,8.801 13.808,15.031a28.812,28.812 0 0 1 7.958,21.755a35.577,35.577 0 0 0 5.544,-11.412a35.597,35.597 0 0 0 -5.541,-11.407c0.035,0.586 0.055,1.175 0.055,1.769z"/>
   <path stroke="null" id="svg_9" fill-opacity="0.8" fill="#868689" d="m25.457,56.7a28.825,28.825 0 0 1 -7.958,-21.757a35.595,35.595 0 0 0 -5.545,11.411a35.594,35.594 0 0 0 5.542,11.408a28.805,28.805 0 0 1 0.069,-4.458a30.94,30.94 0 0 0 2.048,7.086c5.051,5.701 11.896,9.777 19.651,11.34c-6.637,-3.31 -11.512,-8.802 -13.807,-15.03z"/>
   <path stroke="null" id="svg_10" fill="#009ee0" d="m25.457,56.7a28.825,28.825 0 0 1 -7.958,-21.757a35.595,35.595 0 0 0 -5.545,11.411a35.594,35.594 0 0 0 5.542,11.408a28.805,28.805 0 0 1 0.069,-4.458a30.94,30.94 0 0 0 2.048,7.086c5.051,5.701 11.896,9.777 19.651,11.34c-6.637,-3.31 -11.512,-8.802 -13.807,-15.03zm51.126,23.451l-0.005,0.004l0.005,-0.004zm-54.95,4.217z"/>
   <path stroke="null" id="svg_11" fill="#67bee7" d="m53.444,20.98a35.92,35.92 0 0 0 -7.089,-0.705c-11.855,0 -22.358,5.777 -28.855,14.667a28.822,28.822 0 0 0 7.958,21.757c-1.779,-4.828 -2.009,-10.1 -0.306,-15.138c1.799,-5.32 5.467,-9.539 10.166,-12.3a28.821,28.821 0 0 1 11.037,-2.183c8.217,0 15.634,3.428 20.897,8.932c-2.295,-6.229 -7.17,-11.721 -13.808,-15.03zm-31.538,21.603l-2.628,-0.729a32.44,32.44 0 0 1 2.608,-4.434c0.479,-0.681 0.982,-1.338 1.507,-1.974a32.571,32.571 0 0 0 -1.487,7.137z"/>
   <path stroke="null" id="svg_12" fill="#72797f" d="m67.251,36.011c1.779,4.828 2.009,10.097 0.306,15.136c-1.798,5.32 -5.467,9.539 -10.166,12.301a28.822,28.822 0 0 1 -11.037,2.184c-8.217,0 -15.633,-3.428 -20.897,-8.932c2.295,6.229 7.17,11.721 13.808,15.031c2.292,0.461 4.662,0.703 7.089,0.703c11.855,0 22.359,-5.777 28.855,-14.668a28.807,28.807 0 0 0 -7.958,-21.755zm3.781,19.247a31.44,31.44 0 0 1 -1.507,1.975a32.61,32.61 0 0 0 1.487,-7.139l2.628,0.73a32.603,32.603 0 0 1 -2.608,4.434z"/>
   <path stroke="null" id="svg_13" fill="#868689" d="m22.396,80.557l-0.002,0l0.005,0.002l-0.003,-0.002z"/>
   <path stroke="null" id="svg_14" fill="#72797f" d="m10.776,31.488c0.123,-0.293 0.254,-0.582 0.383,-0.871l0.003,-0.022c-0.132,0.295 -0.261,0.593 -0.386,0.893zm70.77,-0.892c-5.773,-12.874 -18.407,-21.98 -33.246,-22.721c14.477,0.963 26.038,12.572 26.913,27.072a35.587,35.587 0 0 1 5.541,11.407a35.753,35.753 0 0 0 1.317,-9.638c0,-2.087 -0.181,-4.132 -0.525,-6.12zm-59.999,-10.608a32.452,32.452 0 0 0 -5.43,4.611c0.729,-1.786 1.543,-3.455 2.625,-5.137a38.603,38.603 0 0 0 -7.583,11.155a35.954,35.954 0 0 0 0.796,15.738a35.595,35.595 0 0 1 5.545,-11.411a28.85,28.85 0 0 1 1.137,-6.471c6.171,-9.137 18.849,-13.18 30.951,-9.093c1.342,0.453 2.629,0.99 3.856,1.602c7.755,1.562 14.6,5.637 19.651,11.338c-3.652,-8.668 -11.225,-15.978 -21.331,-19.39c-6.987,-2.36 -14.143,-2.504 -20.591,-0.823a28.777,28.777 0 0 1 15.182,-4.304c-10.238,0 -19.539,3.996 -26.441,10.507l1.633,1.678zm86.752,-1.505c-0.646,-0.032 -1.29,-0.072 -1.944,-0.072c0.654,0 1.301,0.03 1.944,0.072zm-28.699,12.041z"/>
   <path stroke="null" id="svg_15" fill-opacity="0.8" fill="#72797f" d="m28.115,83.805a32.715,32.715 0 0 1 -7.313,-6.168l-1.871,2.012a42.526,42.526 0 0 0 3.418,2.35l0.005,0.001a41.318,41.318 0 0 0 14.251,5.486a32.465,32.465 0 0 1 -8.49,-3.681zm42.631,-72.966l-0.005,-0.003a41.361,41.361 0 0 0 -14.213,-5.584a32.54,32.54 0 0 1 8.465,3.74a32.752,32.752 0 0 1 7.271,6.218l1.885,-1.998a42.845,42.845 0 0 0 -3.403,-2.373z"/>
   <path stroke="null" id="svg_16" fill="#67bee7" d="m81.546,62.116c0.132,-0.297 0.261,-0.594 0.387,-0.893c-0.123,0.293 -0.254,0.582 -0.383,0.871l-0.004,0.022zm-0.792,-15.762a35.588,35.588 0 0 1 -5.544,11.412a28.85,28.85 0 0 1 -1.137,6.471c-6.171,9.139 -18.849,13.182 -30.951,9.096a30.469,30.469 0 0 1 -3.856,-1.602c-7.755,-1.562 -14.6,-5.639 -19.651,-11.34c3.652,8.666 11.225,15.977 21.331,19.389c6.987,2.359 14.143,2.504 20.591,0.822a28.77,28.77 0 0 1 -15.182,4.305c10.244,0 19.549,-4 26.453,-10.517l-1.635,-1.679a32.499,32.499 0 0 0 5.43,-4.611c-0.729,1.785 -1.543,3.456 -2.625,5.138a38.603,38.603 0 0 0 7.572,-11.144a35.977,35.977 0 0 0 -0.796,-15.74zm-34.4,38.553zm-0.001,0c-0.654,0 -1.301,-0.029 -1.944,-0.072c0.646,0.032 1.29,0.072 1.944,0.072zm-28.857,-27.145a35.614,35.614 0 0 1 -5.542,-11.408a35.978,35.978 0 0 0 -0.793,15.76c5.774,12.875 18.408,21.98 33.247,22.721c-14.475,-0.963 -26.037,-12.573 -26.912,-27.073z"/>
   <path stroke="null" id="svg_17" fill="#009ddf" d="m46.354,1c-25.048,0 -45.354,20.306 -45.354,45.354c0,25.051 20.306,45.355 45.354,45.355s45.354,-20.305 45.354,-45.355c0.001,-25.048 -20.305,-45.354 -45.354,-45.354zm0,83.907c-21.292,0 -38.551,-17.26 -38.551,-38.552c0,-21.292 17.26,-38.551 38.551,-38.551s38.551,17.26 38.551,38.551c0.001,21.292 -17.259,38.552 -38.551,38.552z"/>
   <path stroke="null" id="svg_18" fill="#72797f" d="m19.914,18.312a32.567,32.567 0 0 1 13.468,-10.879a41.496,41.496 0 0 0 -16.535,10.492l1.909,1.515"/>
   <path stroke="null" id="svg_19" fill="#67bee7" d="m72.812,74.395a32.566,32.566 0 0 1 -13.475,10.871a41.503,41.503 0 0 0 16.535,-10.49l-1.909,-1.516m-45.848,10.545a32.715,32.715 0 0 1 -7.313,-6.168l-1.871,2.012a42.526,42.526 0 0 0 3.418,2.35l0.005,0.001a41.318,41.318 0 0 0 14.251,5.486a32.465,32.465 0 0 1 -8.49,-3.681z"/>
   <path stroke="null" id="svg_20" fill="#72797f" d="m70.746,10.839l-0.005,-0.003a41.361,41.361 0 0 0 -14.213,-5.584a32.54,32.54 0 0 1 8.465,3.74a32.752,32.752 0 0 1 7.271,6.218l1.885,-1.998a42.845,42.845 0 0 0 -3.403,-2.373z"/>
  </g>
 </g>
</svg>
